<svg xmlns="http://www.w3.org/2000/svg" width="24" height="24" viewBox="0 0 24 24"><defs><style>.a{fill:#999;fill-rule:evenodd;}.b{fill:none;}</style></defs><path class="a" d="M5932.8,1172.01c1.08,1.186,2.193,2.286,3.412,3.508.363.362.967.76,1.03,1.262a1.048,1.048,0,0,1-1.171,1.216c-.538-.056-.926-.646-1.307-1.03-1.114-1.114-2.4-2.372-3.46-3.414a6.71,6.71,0,0,1-3.646,1.17,6.37,6.37,0,0,1-5.937-3.928,6.44,6.44,0,0,1-.469-2.428,6.364,6.364,0,1,1,12.247,2.428A10.164,10.164,0,0,1,5932.8,1172.01Zm-10.005-4.486a4.9,4.9,0,1,0,4.209-3.976A4.839,4.839,0,0,0,5922.8,1167.524Z" transform="translate(-5917.255 -1157.004)"/><rect class="b" width="24" height="24"/></svg>